#!OML:ASF F:\VICON\USERDATA\INSTALL\rory3\rory3.ASF
:FULLY-SPECIFIED
:DEGREES
229
root 13.5314 17.5888 9.03812 -4.13973 -5.23034 1.36798
lowerback 11.0886 2.89254 1.13289
upperback 1.01824 3.95107 -0.51829
thorax -5.02915 1.91843 -1.7755
lowerneck -22.0688 -6.94693 -13.0167
upperneck 27.9769 -8.87699 11.106
head 14.4699 -3.75139 5.03666
rclavicle 6.65059e-014 -9.34288e-015
rhumerus -32.075 -9.51145 -81.194
rradius 39.1758
rwrist 3.10225
rhand -14.6823 9.53557
rfingers 7.12502
rthumb 11.4711 -20.1306
lclavicle 6.65059e-014 -9.34288e-015
lhumerus -36.4348 8.28162 81.6932
lradius 31.5169
lwrist -9.82478
lhand -17.936 25.5872
lfingers 7.12502
lthumb 8.33206 55.4029
rfemur 4.9365 5.30404 25.8844
rtibia 30.4766
rfoot -20.7328 -6.02336
rtoes 2.85818
lfemur -16.0725 -7.93611 -15.1185
ltibia 19.3786
lfoot -3.52995 -22.242
ltoes -21.843
230
root 13.5372 17.5956 9.12414 -4.19213 -5.55068 2.15619
lowerback 11.1558 2.93089 0.282763
upperback 0.93922 3.88575 -0.729293
thorax -5.1936 1.89971 -1.51817
lowerneck -21.9754 -6.97258 -12.8477
upperneck 28.1372 -8.94935 10.9257
head 14.5103 -3.79189 4.9234
rclavicle 2.70968e-014 -1.68967e-015
rhumerus -32.1738 -9.52872 -81.3007
rradius 39.024
rwrist 3.30676
rhand -14.6229 9.68492
rfingers 7.12502
rthumb 11.5284 -19.978
lclavicle 2.70968e-014 -1.68967e-015
lhumerus -36.4605 8.23027 81.7023
lradius 31.3284
lwrist -9.21546
lhand -18.4377 25.5979
lfingers 7.12502
lthumb 7.84794 55.4323
rfemur 4.63567 5.49121 24.9847
rtibia 31.6009
rfoot -20.613 -5.94245
rtoes 1.48323
lfemur -15.6267 -7.42554 -16.1202
ltibia 19.2475
lfoot -3.36861 -22.3454
ltoes -20.8792
231
root 13.5387 17.6075 9.20533 -4.38622 -5.78332 3.0273
lowerback 11.3565 2.9275 -0.696345
upperback 0.94381 3.74323 -0.959236
thorax -5.35151 1.84698 -1.20108
lowerneck -21.698 -6.93534 -12.7464
upperneck 27.9883 -8.95927 10.9324
head 14.3804 -3.79301 4.9026
rclavicle 2.48729e-014 9.44227e-015
rhumerus -32.0625 -9.60507 -81.4257
rradius 38.7035
rwrist 3.49585
rhand -14.3625 9.70043
rfingers 7.12502
rthumb 11.7796 -19.9483
lclavicle 2.48729e-014 9.44227e-015
lhumerus -36.5059 8.25662 81.6616
lradius 31.2445
lwrist -8.66412
lhand -19.2102 25.4243
lfingers 7.12502
lthumb 7.10221 55.2851
rfemur 4.37553 5.56093 23.9984
rtibia 32.847
rfoot -20.5178 -5.80488
rtoes 1.1282
lfemur -15.0364 -7.00565 -17.2106
ltibia 19.0009
lfoot -2.41598 -22.9145
ltoes -17.3471
232
root 13.5424 17.6199 9.28889 -4.69631 -6.03696 3.69825
lowerback 11.5904 2.86496 -1.3988
upperback 1.08778 3.55504 -1.16146
thorax -5.3625 1.76707 -0.997838
lowerneck -21.7071 -6.88778 -12.5882
upperneck 27.9399 -8.94644 10.9353
head 14.3496 -3.77018 4.87675
rclavicle -1.90274e-014 1.55052e-014
rhumerus -31.8274 -9.70488 -81.6304
rradius 38.4669
rwrist 3.64435
rhand -14.1103 9.34466
rfingers 7.12502
rthumb 12.0227 -20.29
lclavicle -1.90274e-014 1.55052e-014
lhumerus -36.3587 8.6224 81.4571
lradius 31.142
lwrist -8.84846
lhand -19.7363 25.066
lfingers 7.12502
lthumb 6.59438 54.9433
rfemur 4.18947 5.50332 23.1844
rtibia 34.1797
rfoot -20.2389 -5.39586
rtoes 1.21861
lfemur -14.287 -6.68936 -18.1018
ltibia 18.7528
lfoot -1.9413 -23.0605
ltoes -14.8367
233
root 13.5512 17.6324 9.37706 -4.85163 -6.34057 4.05475
lowerback 11.6455 2.76493 -1.68966
upperback 1.16627 3.37515 -1.31788
thorax -5.31853 1.68296 -0.969774
lowerneck -21.5212 -6.89742 -12.3946
upperneck 27.7604 -8.96879 10.72
head 14.2092 -3.79313 4.74123
rclavicle -1.18836e-014 2.06736e-014
rhumerus -31.7179 -9.92267 -81.8549
rradius 38.161
rwrist 4.00815
rhand -14.2473 9.20335
rfingers 7.12502
rthumb 11.8906 -20.439
lclavicle -1.18836e-014 2.06736e-014
lhumerus -35.9558 8.93519 81.206
lradius 30.381
lwrist -8.99153
lhand -20.0884 24.8559
lfingers 7.12502
lthumb 6.25449 54.7435
rfemur 3.82234 5.31147 22.6184
rtibia 35.5643
rfoot -19.6611 -4.70736
rtoes 1.22547
lfemur -13.6848 -6.51267 -18.6468
ltibia 18.5703
lfoot -2.29051 -22.5452
ltoes -15.3547
234
root 13.5628 17.6488 9.46096 -4.73835 -6.66136 4.18064
lowerback 11.4864 2.64146 -1.71935
upperback 1.10745 3.20632 -1.40204
thorax -5.2887 1.60007 -1.00763
lowerneck -20.98 -6.99331 -12.3684
upperneck 27.405 -9.05744 10.4274
head 13.9334 -3.88382 4.58745
rclavicle 3.88873e-015 7.15625e-015
rhumerus -31.6774 -10.2154 -81.991
rradius 37.76
rwrist 4.42484
rhand -14.6907 9.9154
rfingers 7.12502
rthumb 11.463 -19.7512
lclavicle 3.88873e-015 7.15625e-015
lhumerus -35.5587 9.13997 81.0134
lradius 29.3097
lwrist -8.91355
lhand -20.4091 24.6374
lfingers 7.12502
lthumb 5.94483 54.534
rfemur 3.10851 5.00368 22.2149
rtibia 36.9895
rfoot -18.9045 -3.998
rtoes 1.62238
lfemur -13.4197 -6.4222 -18.9134
ltibia 18.4984
lfoot -3.04692 -21.8799
ltoes -17.8359
235
root 13.574 17.6699 9.53772 -4.55371 -7.02173 4.09758
lowerback 11.3887 2.53042 -1.57449
upperback 1.00356 3.07869 -1.39607
thorax -5.33633 1.53442 -1.06072
lowerneck -20.7379 -7.12426 -12.4159
upperneck 27.4043 -9.21626 10.2752
head 13.8986 -3.98595 4.50312
rclavicle -2.25062e-014 -1.49089e-014
rhumerus -31.7197 -10.6522 -82.001
rradius 37.4201
rwrist 4.84688
rhand -14.9676 10.606
rfingers 7.12502
rthumb 11.196 -19.0752
lclavicle -2.25062e-014 -1.49089e-014
lhumerus -35.5609 9.65742 80.7715
lradius 28.9171
lwrist -9.24416
lhand -20.3303 24.7703
lfingers 7.12502
lthumb 6.02091 54.6647
rfemur 2.20633 4.6727 22.0434
rtibia 38.5089
rfoot -17.9113 -3.45005
rtoes 1.22594
lfemur -13.2343 -6.32678 -18.932
ltibia 18.454
lfoot -3.39305 -21.3902
ltoes -18.7709
236
root 13.586 17.6968 9.61476 -4.50465 -7.57439 4.01317
lowerback 11.4295 2.51321 -1.44068
upperback 0.99165 3.07196 -1.38356
thorax -5.36519 1.52803 -1.12389
lowerneck -20.838 -7.29896 -12.5428
upperneck 27.6609 -9.48042 10.3818
head 14.085 -4.09813 4.52375
rclavicle 1.58344e-014 -7.45443e-015
rhumerus -31.8099 -11.3056 -81.9391
rradius 37.1668
rwrist 5.20494
rhand -14.6259 10.1931
rfingers 7.12502
rthumb 11.5255 -19.47
lclavicle 1.58344e-014 -7.45443e-015
lhumerus -35.7366 10.2766 80.5279
lradius 29.0549
lwrist -9.86165
lhand -20.2623 24.8403
lfingers 7.12502
lthumb 6.08657 54.7329
rfemur 1.33005 4.4004 21.8386
rtibia 40.1555
rfoot -16.9032 -2.64014
rtoes 0.559222
lfemur -12.8039 -6.14765 -18.9408
ltibia 18.266
lfoot -3.19773 -20.9319
ltoes -17.3852
237
root 13.6009 17.7167 9.69285 -4.50638 -8.20237 3.9678
lowerback 11.431 2.4706 -1.30666
upperback 1.07362 3.03249 -1.39615
thorax -5.27231 1.50553 -1.20306
lowerneck -20.9227 -7.42571 -12.699
upperneck 27.7799 -9.69193 10.6058
head 14.2123 -4.1756 4.60423
rclavicle -2.8128e-014 1.35174e-014
rhumerus -31.7436 -11.7629 -82.0146
rradius 36.881
rwrist 5.24126
rhand -14.5566 9.84577
rfingers 7.12502
rthumb 11.5924 -19.8136
lclavicle -2.8128e-014 1.35174e-014
lhumerus -35.8742 10.8424 80.302
lradius 29.3217
lwrist -10.1753
lhand -19.5079 26.2213
lfingers 7.12502
lthumb 6.81492 56.0916
rfemur 0.411993 4.06058 21.529
rtibia 41.915
rfoot -15.837 -1.59778
rtoes 0.979914
lfemur -12.3108 -6.17141 -18.971
ltibia 17.9415
lfoot -2.16576 -20.0507
ltoes -12.6679
238
root 13.6141 17.7311 9.77036 -4.53002 -8.86148 3.9896
lowerback 11.4985 2.40242 -1.30074
upperback 1.06283 2.94152 -1.37703
thorax -5.32268 1.46038 -1.1756
lowerneck -20.9217 -7.5069 -12.777
upperneck 28.0137 -9.81255 10.6053
head 14.3381 -4.2379 4.6014
rclavicle 2.12016e-014 6.36111e-015
rhumerus -31.7866 -11.8439 -82.097
rradius 36.616
rwrist 5.09748
rhand -15.1008 10.1357
rfingers 7.12502
rthumb 11.0675 -19.5525
lclavicle 2.12016e-014 6.36111e-015
lhumerus -36.1994 11.392 80.138
lradius 29.6324
lwrist -10.2496
lhand -17.59 29.2782
lfingers 7.12502
lthumb 8.66599 59.0803
rfemur -0.598335 3.61118 21.1345
rtibia 43.7456
rfoot -14.4998 -0.541379
rtoes 1.80984
lfemur -11.7684 -6.21178 -19.0758
ltibia 17.5084
lfoot -0.780077 -18.796
ltoes -6.62194
239
root 13.6224 17.7543 9.84542 -4.50716 -9.58227 4.05503
lowerback 11.5733 2.37922 -1.39755
upperback 0.978721 2.89505 -1.37115
thorax -5.45837 1.43919 -1.11409
lowerneck -20.6624 -7.72974 -13.0036
upperneck 28.1171 -10.1378 10.6811
head 14.3993 -4.40281 4.61226
rclavicle -1.56791e-014 1.65985e-014
rhumerus -31.9042 -12.0324 -82.1185
rradius 36.3623
rwrist 5.09892
rhand -15.2425 10.3902
rfingers 7.12502
rthumb 10.9309 -19.3052
lclavicle -1.56791e-014 1.65985e-014
lhumerus -36.5484 11.8372 79.9426
lradius 29.9677
lwrist -10.6014
lhand -16.4804 30.1596
lfingers 7.12502
lthumb 9.7367 59.9146
rfemur -1.69871 3.16916 20.7033
rtibia 45.5933
rfoot -13.0897 0.474336
rtoes 3.0319
lfemur -11.1571 -6.09182 -19.2358
ltibia 16.9749
lfoot -0.462436 -17.8086
ltoes -5.28083
240
root 13.6281 17.7829 9.9192 -4.46526 -10.3418 4.18665
lowerback 11.5023 2.38954 -1.57334
upperback 0.988431 2.88626 -1.39522
thorax -5.41621 1.43854 -1.03569
lowerneck -20.2605 -8.01367 -13.4477
upperneck 27.9164 -10.5692 11.0643
head 14.3531 -4.60189 4.75847
rclavicle -1.72321e-014 -2.48481e-015
rhumerus -31.9181 -12.2009 -82.192
rradius 36.2144
rwrist 4.97072
rhand -15.1395 10.5656
rfingers 7.12502
rthumb 11.0302 -19.1246
lclavicle -1.72321e-014 -2.48481e-015
lhumerus -36.8329 11.9968 79.8677
lradius 30.5225
lwrist -10.9136
lhand -16.5423 29.4562
lfingers 7.12502
lthumb 9.677 59.2139
rfemur -2.85373 2.70376 20.1858
rtibia 47.4193
rfoot -11.395 1.37901
rtoes 5.08572
lfemur -10.5303 -5.87824 -19.455
ltibia 16.4092
lfoot -0.884916 -17.1316
ltoes -7.19542
241
root 13.6331 17.81 9.98827 -4.43088 -11.0708 4.19798
lowerback 11.5503 2.34219 -1.65659
upperback 0.998951 2.81328 -1.35456
thorax -5.43818 1.40461 -0.936674
lowerneck -19.9924 -8.15557 -13.6103
upperneck 27.7525 -10.7978 11.2148
head 14.2842 -4.70911 4.79986
rclavicle -5.57839e-015 1.14301e-014
rhumerus -31.8824 -12.0537 -82.3128
rradius 36.1002
rwrist 4.61973
rhand -15.0901 10.661
rfingers 7.12502
rthumb 11.0778 -19.0266
lclavicle -5.57839e-015 1.14301e-014
lhumerus -36.7638 11.9964 79.9204
lradius 30.405
lwrist -10.9109
lhand -16.5899 28.9281
lfingers 7.12502
lthumb 9.63104 58.6879
rfemur -4.02938 2.08834 19.7931
rtibia 49.1853
rfoot -9.41025 2.02038
rtoes 6.95441
lfemur -9.97325 -5.67365 -19.5175
ltibia 15.9171
lfoot -1.02239 -16.4593
ltoes -7.7296
242
root 13.6372 17.8336 10.0513 -4.38403 -11.8138 4.14516
lowerback 11.7177 2.28121 -1.72047
upperback 0.961648 2.72215 -1.28361
thorax -5.57742 1.36159 -0.820518
lowerneck -19.7726 -8.23375 -13.4559
upperneck 27.636 -10.958 11.116
head 14.1931 -4.78312 4.69792
rclavicle -9.8212e-015 -4.96962e-015
rhumerus -31.8721 -11.8628 -82.3957
rradius 36.0466
rwrist 4.38968
rhand -14.8529 10.7297
rfingers 7.12502
rthumb 11.3066 -18.9455
lclavicle -9.8212e-015 -4.96962e-015
lhumerus -36.2162 11.655 80.1015
lradius 29.3412
lwrist -10.6791
lhand -16.7612 28.3716
lfingers 7.12502
lthumb 9.46572 58.1391
rfemur -5.21951 1.32106 19.484
rtibia 50.8846
rfoot -7.56161 2.4209
rtoes 8.66497
lfemur -9.44161 -5.35231 -19.5012
ltibia 15.4408
lfoot -1.10993 -15.8565
ltoes -8.33214
